<!-- Generated by IcoMoon.io -->
<svg version="1.1" xmlns="http://www.w3.org/2000/svg" width="32" height="32" viewBox="0 0 32 32">
<title>cross</title>
<path d="M16 4.419c-6.39 0-11.581 5.191-11.581 11.581s5.191 11.581 11.581 11.581c6.39 0 11.581-5.191 11.581-11.581s-5.191-11.581-11.581-11.581zM16 5.486c5.813 0 10.514 4.701 10.514 10.514s-4.701 10.514-10.514 10.514c-5.813 0-10.514-4.701-10.514-10.514s4.701-10.514 10.514-10.514zM12.025 11.491c-0.147 0-0.281 0.060-0.377 0.156v0c-0.097 0.097-0.156 0.23-0.156 0.377s0.060 0.281 0.156 0.377l3.598 3.598-3.598 3.598c-0.097 0.097-0.156 0.23-0.156 0.377s0.060 0.281 0.156 0.377v0c0.097 0.096 0.23 0.156 0.377 0.156s0.281-0.060 0.377-0.156l3.598-3.598 3.598 3.598c0.096 0.096 0.23 0.156 0.377 0.156s0.281-0.060 0.377-0.156v0c0.097-0.097 0.156-0.23 0.156-0.377s-0.060-0.281-0.156-0.377l-3.598-3.598 3.598-3.598c0.097-0.097 0.156-0.23 0.156-0.377s-0.060-0.281-0.156-0.377v0c-0.096-0.097-0.23-0.156-0.377-0.156v0c-0.147 0-0.281 0.060-0.377 0.156l-3.598 3.598-3.598-3.598c-0.097-0.097-0.23-0.156-0.377-0.156v0z"></path>
</svg>
