<?xml version="1.0" standalone="no"?>
<!DOCTYPE svg PUBLIC "-//W3C//DTD SVG 20010904//EN"
 "http://www.w3.org/TR/2001/REC-SVG-20010904/DTD/svg10.dtd">
<svg version="1.0" xmlns="http://www.w3.org/2000/svg"
 width="512.000000pt" height="512.000000pt" viewBox="0 0 512.000000 512.000000"
 preserveAspectRatio="xMidYMid meet">

<g transform="translate(0.000000,512.000000) scale(0.100000,-0.100000)"
fill="#000000" stroke="none">
<path d="M2565 5113 c-421 -36 -842 -199 -1181 -454 -426 -322 -718 -838 -764
-1354 -14 -154 -6 -236 46 -455 19 -80 39 -190 45 -244 19 -183 -10 -266 -184
-539 -112 -174 -137 -230 -137 -304 0 -67 27 -115 91 -159 38 -26 121 -54 164
-54 52 -1 75 -49 75 -160 0 -102 16 -173 46 -210 20 -24 23 -35 18 -69 -13
-78 46 -155 145 -191 46 -16 46 -17 45 -61 -7 -269 -8 -262 16 -316 41 -96
141 -165 279 -192 139 -27 520 27 793 112 l76 24 35 -76 c44 -94 63 -160 82
-276 12 -74 19 -94 40 -112 l26 -23 1095 0 1095 0 24 25 c38 38 34 82 -15 141
-117 142 -345 732 -374 969 -6 48 -3 56 64 185 282 538 393 840 486 1315 26
132 28 156 28 420 0 224 -3 299 -17 375 -68 370 -166 625 -345 895 -88 131
-319 365 -450 453 -353 240 -894 375 -1347 335z m515 -193 c284 -52 531 -146
735 -283 132 -88 323 -283 415 -422 171 -261 283 -573 320 -900 13 -116 13
-397 0 -505 -36 -292 -144 -675 -280 -987 -31 -72 -104 -221 -163 -330 -125
-235 -137 -263 -137 -315 0 -176 165 -664 338 -1000 2 -5 -421 -8 -941 -8
l-945 0 -7 47 c-9 62 -58 209 -90 273 -15 29 -25 53 -23 55 2 1 44 20 94 42
200 88 383 206 453 293 44 55 46 103 7 136 -15 13 -37 24 -49 24 -28 0 -83
-33 -99 -60 -17 -28 -113 -101 -202 -152 -272 -159 -808 -310 -1106 -312 -114
-1 -129 1 -174 24 -80 40 -90 61 -85 177 6 174 3 236 -14 270 -22 41 -60 70
-111 85 -22 6 -45 15 -49 19 -5 4 11 21 36 38 64 44 75 88 34 136 -18 22 -34
27 -83 32 l-62 6 -4 116 c-4 108 -6 122 -34 172 -39 69 -102 113 -181 127
-149 26 -149 30 -3 256 105 164 164 276 192 366 20 64 23 93 21 205 -1 72 -8
159 -16 195 -17 74 -24 63 90 139 39 27 106 61 148 76 69 25 83 27 161 21 85
-6 86 -6 115 23 63 63 20 131 -96 150 -122 20 -273 -25 -425 -128 -24 -17 -48
-27 -52 -23 -3 4 -12 45 -18 90 -19 141 4 325 66 528 151 501 484 882 976
1119 215 103 438 169 678 200 145 19 419 12 570 -15z"/>
<path d="M2635 4771 c-81 -21 -138 -68 -178 -147 -16 -30 -19 -32 -182 -64
l-166 -33 -27 20 c-59 44 -96 57 -162 57 -106 0 -193 -58 -235 -157 -19 -46
-19 -144 -1 -189 l14 -34 -83 -110 c-69 -93 -89 -112 -121 -122 -95 -28 -167
-130 -166 -237 0 -33 6 -76 15 -96 22 -54 82 -115 132 -136 l45 -18 67 -167
66 -167 -25 -38 c-113 -172 -12 -382 192 -400 47 -5 67 -1 111 19 60 27 111
75 129 119 l12 29 234 0 c190 0 234 -3 234 -13 0 -26 60 -96 104 -122 30 -17
68 -29 110 -33 l64 -7 137 -208 138 -208 -27 -50 c-96 -175 23 -379 220 -379
107 0 206 69 239 166 10 30 35 58 111 121 55 45 106 82 115 83 9 0 33 -7 52
-15 140 -58 308 47 332 207 16 106 -57 230 -156 265 -45 16 -56 27 -130 130
-66 91 -79 116 -73 137 8 33 15 38 101 71 l71 27 39 -31 c100 -80 255 -64 342
34 46 53 61 94 61 168 0 110 -65 204 -164 237 -28 9 -39 26 -95 138 l-63 128
26 38 c86 127 41 294 -99 369 -51 27 -165 30 -210 5 l-29 -16 -73 60 c-67 54
-72 62 -66 86 30 110 -23 230 -128 287 -87 47 -210 35 -276 -27 l-22 -21 -129
32 -129 33 -17 39 c-44 100 -178 166 -281 140z m113 -194 c50 -47 11 -137 -61
-137 -34 0 -67 26 -80 62 -11 31 13 79 47 94 36 15 62 10 94 -19z m-757 -183
c31 -58 -6 -124 -70 -124 -48 0 -81 32 -81 80 0 83 112 115 151 44z m1455 -10
c8 -18 11 -41 7 -51 -33 -93 -163 -79 -163 17 0 89 122 116 156 34z m-981 17
c3 -11 25 -38 49 -61 l44 -43 -75 -124 c-50 -82 -80 -123 -89 -119 -7 3 -67
40 -134 82 -93 60 -119 81 -114 93 4 9 14 44 22 78 l16 61 120 25 c151 31 153
31 161 8z m655 -73 c0 -79 64 -171 145 -209 50 -23 148 -25 199 -4 l37 16 69
-58 70 -57 -6 -51 c-4 -27 -8 -52 -10 -54 -2 -2 -64 -16 -139 -31 l-136 -27
-14 27 c-21 41 -91 97 -144 115 -37 12 -75 44 -193 163 -82 81 -148 152 -148
158 0 6 9 19 21 30 12 10 27 31 35 45 l13 27 101 -25 100 -25 0 -40z m-194
-409 c-19 -20 -37 -46 -41 -58 -6 -20 -13 -21 -108 -21 l-102 0 -20 36 c-11
20 -36 50 -56 68 l-37 31 71 118 70 118 128 -127 128 -128 -33 -37z m-811 108
c145 -92 144 -91 118 -119 -11 -13 -24 -33 -28 -45 -6 -23 -8 -23 -195 -23
l-188 0 -26 44 c-14 24 -38 53 -52 63 l-27 20 52 69 53 70 91 -4 92 -5 110
-70z m1829 -47 c31 -30 27 -87 -8 -116 -35 -31 -76 -31 -110 1 -59 55 -11 154
69 140 16 -3 39 -14 49 -25z m-2325 -155 c16 -8 31 -22 35 -30 33 -88 -61
-163 -128 -102 -42 37 -36 106 12 131 34 19 46 19 81 1z m875 -15 c31 -30 27
-87 -8 -116 -55 -48 -136 -13 -136 58 1 78 89 113 144 58z m684 -6 c47 -53 9
-133 -64 -134 -58 0 -101 69 -73 119 31 55 95 62 137 15z m528 -68 c8 -22
-146 -398 -160 -388 -75 58 -256 205 -256 209 0 2 14 24 30 48 17 24 30 48 30
54 0 5 5 13 12 17 9 6 290 68 331 73 4 1 10 -5 13 -13z m-1487 -116 c18 -27
36 -52 42 -55 5 -4 -77 -78 -182 -166 -184 -153 -194 -160 -232 -157 l-39 3
-56 139 -55 139 42 34 c23 20 51 53 62 74 l19 39 184 0 183 0 32 -50z m672 18
c7 -18 31 -49 52 -70 l40 -38 -87 -145 c-78 -130 -90 -145 -114 -145 -26 0
-32 9 -101 165 l-73 165 25 30 c14 16 28 39 32 50 6 18 15 20 109 20 l104 0
13 -32z m1074 -68 l49 -99 -45 -45 c-47 -46 -74 -96 -84 -159 -5 -31 -12 -40
-42 -52 -69 -29 -76 -28 -104 13 l-26 38 80 202 c99 249 100 249 172 102z
m-1417 -286 l50 -111 -29 -43 c-16 -24 -29 -47 -29 -52 0 -4 -105 -8 -233 -8
l-233 0 -18 36 c-9 21 -13 40 -9 45 4 4 98 82 208 174 l200 166 22 -48 c12
-26 44 -98 71 -159z m710 76 c61 -50 112 -93 112 -96 0 -3 -13 -22 -29 -42
-16 -20 -32 -47 -35 -58 -6 -18 -25 -25 -139 -48 -72 -14 -139 -26 -147 -26
-8 1 -25 16 -37 35 l-22 35 87 145 c48 80 89 145 92 145 3 0 56 -41 118 -90z
m912 -40 c21 0 50 -46 50 -77 0 -72 -91 -112 -137 -60 -29 32 -34 52 -21 88
11 32 60 63 86 54 8 -3 18 -5 22 -5z m-554 -216 c24 -57 -14 -114 -77 -114
-46 0 -79 36 -79 85 0 84 123 108 156 29z m-1735 -47 c21 -16 39 -51 39 -77 0
-30 -53 -80 -85 -80 -32 0 -85 49 -85 79 0 31 20 68 44 79 29 14 68 14 87 -1z
m951 -17 c25 -26 29 -36 24 -63 -7 -37 -47 -77 -77 -77 -78 0 -117 89 -63 144
37 36 77 34 116 -4z m491 -99 c27 -46 93 -99 139 -112 24 -6 74 -9 113 -6 77
5 67 11 131 -80 l37 -53 -37 -36 c-58 -56 -79 -114 -73 -199 3 -50 1 -72 -8
-80 -8 -5 -38 -29 -69 -53 l-55 -44 -34 34 c-45 46 -97 69 -168 75 l-59 6
-137 209 -136 210 24 46 c13 26 25 49 26 51 2 3 253 57 278 60 6 1 18 -12 28
-28z m621 -411 c31 -30 27 -87 -8 -116 -35 -31 -76 -31 -110 1 -59 55 -11 154
69 140 16 -3 39 -14 49 -25z m-596 -346 c30 -34 28 -75 -4 -108 -66 -66 -178
13 -133 93 31 55 95 62 137 15z"/>
</g>
</svg>
