<!-- Generated by IcoMoon.io -->
<svg version="1.1" xmlns="http://www.w3.org/2000/svg" width="32" height="32" viewBox="0 0 32 32">
<title>menu</title>
<path fill="#4baadc" d="M26.5 10.5c1.657 0 3-1.344 3-3s-1.343-3-3-3h-21c-1.657 0-3 1.343-3 3s1.343 3 3 3h21z"></path>
<path fill="#fff" d="M7.5 7.5c0 0.552-0.448 1-1 1s-1-0.448-1-1c0-0.552 0.448-1 1-1s1 0.448 1 1z"></path>
<path fill="#4baadc" d="M26.5 19.5c1.657 0 3-1.343 3-3s-1.343-3-3-3h-21c-1.657 0-3 1.344-3 3s1.343 3 3 3h21z"></path>
<path fill="#fff" d="M7.5 16.5c0 0.552-0.448 1-1 1s-1-0.448-1-1c0-0.552 0.448-1 1-1s1 0.448 1 1z"></path>
<path fill="#4baadc" d="M26.5 28.5c1.657 0 3-1.343 3-3s-1.343-3-3-3h-21c-1.657 0-3 1.343-3 3s1.343 3 3 3h21z"></path>
<path fill="#fff" d="M7.5 25.5c0 0.552-0.448 1-1 1s-1-0.448-1-1c0-0.552 0.448-1 1-1s1 0.448 1 1z"></path>
</svg>
