<svg aria-hidden="true" style="position: absolute; width: 0; height: 0; overflow: hidden;" version="1.1"
    xmlns="http://www.w3.org/2000/svg" xmlns:xlink="http://www.w3.org/1999/xlink">
    <defs>
        <symbol id="icon-menu" viewBox="0 0 32 32">
            <path fill="#4baadc" style="fill: var(--color1, #4baadc)"
                d="M26.5 10.5c1.657 0 3-1.344 3-3s-1.343-3-3-3h-21c-1.657 0-3 1.343-3 3s1.343 3 3 3h21z"></path>
            <path fill="#fff" style="fill: var(--color2, #fff)"
                d="M7.5 7.5c0 0.552-0.448 1-1 1s-1-0.448-1-1c0-0.552 0.448-1 1-1s1 0.448 1 1z"></path>
            <path fill="#4baadc" style="fill: var(--color1, #4baadc)"
                d="M26.5 19.5c1.657 0 3-1.343 3-3s-1.343-3-3-3h-21c-1.657 0-3 1.344-3 3s1.343 3 3 3h21z"></path>
            <path fill="#fff" style="fill: var(--color2, #fff)"
                d="M7.5 16.5c0 0.552-0.448 1-1 1s-1-0.448-1-1c0-0.552 0.448-1 1-1s1 0.448 1 1z"></path>
            <path fill="#4baadc" style="fill: var(--color1, #4baadc)"
                d="M26.5 28.5c1.657 0 3-1.343 3-3s-1.343-3-3-3h-21c-1.657 0-3 1.343-3 3s1.343 3 3 3h21z"></path>
            <path fill="#fff" style="fill: var(--color2, #fff)"
                d="M7.5 25.5c0 0.552-0.448 1-1 1s-1-0.448-1-1c0-0.552 0.448-1 1-1s1 0.448 1 1z"></path>
        </symbol>
        <symbol id="icon-cross" viewBox="0 0 32 32">
            <path
                d="M16 4.419c-6.39 0-11.581 5.191-11.581 11.581s5.191 11.581 11.581 11.581c6.39 0 11.581-5.191 11.581-11.581s-5.191-11.581-11.581-11.581zM16 5.486c5.813 0 10.514 4.701 10.514 10.514s-4.701 10.514-10.514 10.514c-5.813 0-10.514-4.701-10.514-10.514s4.701-10.514 10.514-10.514zM12.025 11.491c-0.147 0-0.281 0.060-0.377 0.156v0c-0.097 0.097-0.156 0.23-0.156 0.377s0.060 0.281 0.156 0.377l3.598 3.598-3.598 3.598c-0.097 0.097-0.156 0.23-0.156 0.377s0.060 0.281 0.156 0.377v0c0.097 0.096 0.23 0.156 0.377 0.156s0.281-0.060 0.377-0.156l3.598-3.598 3.598 3.598c0.096 0.096 0.23 0.156 0.377 0.156s0.281-0.060 0.377-0.156v0c0.097-0.097 0.156-0.23 0.156-0.377s-0.060-0.281-0.156-0.377l-3.598-3.598 3.598-3.598c0.097-0.097 0.156-0.23 0.156-0.377s-0.060-0.281-0.156-0.377v0c-0.096-0.097-0.23-0.156-0.377-0.156v0c-0.147 0-0.281 0.060-0.377 0.156l-3.598 3.598-3.598-3.598c-0.097-0.097-0.23-0.156-0.377-0.156v0z">
            </path>
        </symbol>
    </defs>
</svg>