<svg aria-hidden="true" style="position: absolute; width: 0; height: 0; overflow: hidden;" version="1.1"
    xmlns="http://www.w3.org/2000/svg" xmlns:xlink="http://www.w3.org/1999/xlink">
    <defs>
        <symbol id="icon-cross" viewBox="0 0 32 32">
            <path
                d="M16 4.419c-6.39 0-11.581 5.191-11.581 11.581s5.191 11.581 11.581 11.581c6.39 0 11.581-5.191 11.581-11.581s-5.191-11.581-11.581-11.581zM16 5.486c5.813 0 10.514 4.701 10.514 10.514s-4.701 10.514-10.514 10.514c-5.813 0-10.514-4.701-10.514-10.514s4.701-10.514 10.514-10.514zM12.025 11.491c-0.147 0-0.281 0.060-0.377 0.156v0c-0.097 0.097-0.156 0.23-0.156 0.377s0.060 0.281 0.156 0.377l3.598 3.598-3.598 3.598c-0.097 0.097-0.156 0.23-0.156 0.377s0.060 0.281 0.156 0.377v0c0.097 0.096 0.23 0.156 0.377 0.156s0.281-0.060 0.377-0.156l3.598-3.598 3.598 3.598c0.096 0.096 0.23 0.156 0.377 0.156s0.281-0.060 0.377-0.156v0c0.097-0.097 0.156-0.23 0.156-0.377s-0.060-0.281-0.156-0.377l-3.598-3.598 3.598-3.598c0.097-0.097 0.156-0.23 0.156-0.377s-0.060-0.281-0.156-0.377v0c-0.096-0.097-0.23-0.156-0.377-0.156v0c-0.147 0-0.281 0.060-0.377 0.156l-3.598 3.598-3.598-3.598c-0.097-0.097-0.23-0.156-0.377-0.156v0z">
            </path>
        </symbol>
        <symbol id="icon-menu" viewBox="0 0 32 32">
            <path d="M26.5 10.5c1.657 0 3-1.344 3-3s-1.343-3-3-3h-21c-1.657 0-3 1.343-3 3s1.343 3 3 3h21z"></path>
            <path d="M7.5 7.5c0 0.552-0.448 1-1 1s-1-0.448-1-1c0-0.552 0.448-1 1-1s1 0.448 1 1z"></path>
            <path d="M26.5 19.5c1.657 0 3-1.343 3-3s-1.343-3-3-3h-21c-1.657 0-3 1.344-3 3s1.343 3 3 3h21z"></path>
            <path d="M7.5 16.5c0 0.552-0.448 1-1 1s-1-0.448-1-1c0-0.552 0.448-1 1-1s1 0.448 1 1z"></path>
            <path d="M26.5 28.5c1.657 0 3-1.343 3-3s-1.343-3-3-3h-21c-1.657 0-3 1.343-3 3s1.343 3 3 3h21z"></path>
            <path d="M7.5 25.5c0 0.552-0.448 1-1 1s-1-0.448-1-1c0-0.552 0.448-1 1-1s1 0.448 1 1z"></path>
        </symbol>
        <symbol id="icon-logomain" viewBox="0 0 32 32">
            <path
                d="M16.031 0.044c-2.631 0.225-5.262 1.244-7.381 2.837-2.662 2.013-4.487 5.238-4.775 8.463-0.087 0.963-0.038 1.475 0.287 2.844 0.119 0.5 0.244 1.188 0.281 1.525 0.119 1.144-0.063 1.662-1.15 3.369-0.7 1.087-0.856 1.438-0.856 1.9 0 0.419 0.169 0.719 0.569 0.994 0.237 0.163 0.756 0.337 1.025 0.337 0.325 0.006 0.469 0.306 0.469 1 0 0.637 0.1 1.081 0.287 1.313 0.125 0.15 0.144 0.219 0.112 0.431-0.081 0.488 0.287 0.969 0.906 1.194 0.287 0.1 0.287 0.106 0.281 0.381-0.044 1.681-0.050 1.637 0.1 1.975 0.256 0.6 0.881 1.031 1.744 1.2 0.869 0.169 3.25-0.169 4.956-0.7l0.475-0.15 0.219 0.475c0.275 0.587 0.394 1 0.512 1.725 0.075 0.462 0.119 0.587 0.25 0.7l0.162 0.144h13.688l0.15-0.156c0.238-0.238 0.212-0.512-0.094-0.881-0.731-0.887-2.156-4.575-2.337-6.056-0.038-0.3-0.019-0.35 0.4-1.156 1.762-3.363 2.456-5.25 3.038-8.219 0.163-0.825 0.175-0.975 0.175-2.625 0-1.4-0.019-1.869-0.106-2.344-0.425-2.313-1.038-3.906-2.156-5.594-0.55-0.819-1.994-2.281-2.813-2.831-2.206-1.5-5.588-2.344-8.419-2.094zM19.25 1.25c1.775 0.325 3.319 0.913 4.594 1.769 0.825 0.55 2.019 1.769 2.594 2.638 1.069 1.631 1.769 3.581 2 5.625 0.081 0.725 0.081 2.481 0 3.156-0.225 1.825-0.9 4.219-1.75 6.169-0.194 0.45-0.65 1.381-1.019 2.063-0.781 1.469-0.856 1.644-0.856 1.969 0 1.1 1.031 4.15 2.113 6.25 0.012 0.031-2.631 0.050-5.881 0.050h-5.906l-0.044-0.294c-0.056-0.387-0.363-1.306-0.563-1.706-0.094-0.181-0.156-0.331-0.144-0.344 0.012-0.006 0.275-0.125 0.588-0.262 1.25-0.55 2.394-1.288 2.831-1.831 0.275-0.344 0.288-0.644 0.044-0.85-0.094-0.081-0.231-0.15-0.306-0.15-0.175 0-0.519 0.206-0.619 0.375-0.106 0.175-0.706 0.631-1.262 0.95-1.7 0.994-5.050 1.938-6.912 1.95-0.713 0.006-0.806-0.006-1.088-0.15-0.5-0.25-0.563-0.381-0.531-1.106 0.037-1.087 0.019-1.475-0.088-1.688-0.138-0.256-0.375-0.438-0.694-0.531-0.138-0.038-0.281-0.094-0.306-0.119-0.031-0.025 0.069-0.131 0.225-0.238 0.4-0.275 0.469-0.55 0.213-0.85-0.112-0.137-0.213-0.169-0.519-0.2l-0.388-0.038-0.025-0.725c-0.025-0.675-0.037-0.762-0.213-1.075-0.244-0.431-0.638-0.706-1.131-0.794-0.931-0.163-0.931-0.188-0.019-1.6 0.656-1.025 1.025-1.725 1.2-2.288 0.125-0.4 0.144-0.581 0.131-1.281-0.006-0.45-0.050-0.994-0.1-1.219-0.106-0.463-0.15-0.394 0.563-0.869 0.244-0.169 0.662-0.381 0.925-0.475 0.431-0.156 0.519-0.169 1.006-0.131 0.531 0.037 0.537 0.037 0.719-0.144 0.394-0.394 0.125-0.819-0.6-0.938-0.763-0.125-1.706 0.156-2.656 0.8-0.15 0.106-0.3 0.169-0.325 0.144-0.019-0.025-0.075-0.281-0.112-0.563-0.119-0.881 0.025-2.031 0.412-3.3 0.944-3.131 3.025-5.513 6.1-6.994 1.344-0.644 2.737-1.056 4.237-1.25 0.906-0.119 2.619-0.075 3.563 0.094z">
            </path>
            <path
                d="M16.469 2.181c-0.506 0.131-0.863 0.425-1.113 0.919-0.1 0.188-0.119 0.2-1.137 0.4l-1.037 0.206-0.169-0.125c-0.369-0.275-0.6-0.356-1.012-0.356-0.662 0-1.206 0.362-1.469 0.981-0.119 0.287-0.119 0.9-0.006 1.181l0.088 0.213-0.519 0.688c-0.431 0.581-0.556 0.7-0.756 0.763-0.594 0.175-1.044 0.813-1.037 1.481 0 0.206 0.037 0.475 0.094 0.6 0.137 0.338 0.512 0.719 0.825 0.85l0.281 0.113 0.419 1.044 0.412 1.044-0.156 0.238c-0.706 1.075-0.075 2.387 1.2 2.5 0.294 0.031 0.419 0.006 0.694-0.119 0.375-0.169 0.694-0.469 0.806-0.744l0.075-0.181h1.463c1.188 0 1.463 0.019 1.463 0.081 0 0.162 0.375 0.6 0.65 0.762 0.188 0.106 0.425 0.181 0.688 0.206l0.4 0.044 0.856 1.3 0.863 1.3-0.169 0.313c-0.6 1.094 0.144 2.369 1.375 2.369 0.669 0 1.288-0.431 1.494-1.038 0.063-0.188 0.219-0.363 0.694-0.756 0.344-0.281 0.663-0.512 0.719-0.519 0.056 0 0.206 0.044 0.325 0.094 0.875 0.363 1.925-0.294 2.075-1.294 0.1-0.663-0.356-1.438-0.975-1.656-0.281-0.1-0.35-0.169-0.813-0.813-0.413-0.569-0.494-0.725-0.456-0.856 0.050-0.206 0.094-0.238 0.631-0.444l0.444-0.169 0.244 0.194c0.625 0.5 1.594 0.4 2.137-0.213 0.288-0.331 0.381-0.588 0.381-1.050 0-0.688-0.406-1.275-1.025-1.481-0.175-0.056-0.244-0.162-0.594-0.863l-0.394-0.8 0.163-0.238c0.538-0.794 0.256-1.838-0.619-2.306-0.319-0.169-1.031-0.188-1.313-0.031l-0.181 0.1-0.456-0.375c-0.419-0.338-0.45-0.388-0.413-0.537 0.188-0.688-0.144-1.438-0.8-1.794-0.544-0.294-1.313-0.219-1.725 0.169l-0.137 0.131-0.806-0.2-0.806-0.206-0.106-0.244c-0.275-0.625-1.113-1.038-1.756-0.875zM17.175 3.394c0.313 0.294 0.069 0.856-0.381 0.856-0.212 0-0.419-0.162-0.5-0.388-0.069-0.194 0.081-0.494 0.294-0.587 0.225-0.094 0.387-0.063 0.587 0.119zM12.444 4.537c0.194 0.362-0.037 0.775-0.438 0.775-0.3 0-0.506-0.2-0.506-0.5 0-0.519 0.7-0.719 0.944-0.275zM21.538 4.6c0.050 0.112 0.069 0.256 0.044 0.319-0.206 0.581-1.019 0.494-1.019-0.106 0-0.556 0.762-0.725 0.975-0.213zM15.406 4.494c0.019 0.069 0.156 0.237 0.306 0.381l0.275 0.269-0.469 0.775c-0.313 0.513-0.5 0.769-0.556 0.744-0.044-0.019-0.419-0.25-0.838-0.513-0.581-0.375-0.744-0.506-0.713-0.581 0.025-0.056 0.088-0.275 0.137-0.487l0.1-0.381 0.75-0.156c0.944-0.194 0.956-0.194 1.006-0.050zM19.5 4.95c0 0.494 0.4 1.069 0.906 1.306 0.313 0.144 0.925 0.156 1.244 0.025l0.231-0.1 0.431 0.362 0.438 0.356-0.038 0.319c-0.025 0.169-0.050 0.325-0.063 0.338s-0.4 0.1-0.869 0.194l-0.85 0.169-0.087-0.169c-0.131-0.256-0.569-0.606-0.9-0.719-0.231-0.075-0.469-0.275-1.206-1.019-0.512-0.506-0.925-0.95-0.925-0.987s0.056-0.119 0.131-0.188c0.075-0.063 0.169-0.194 0.219-0.281l0.081-0.169 0.631 0.156 0.625 0.156v0.25zM18.288 7.506c-0.119 0.125-0.231 0.287-0.256 0.362-0.038 0.125-0.081 0.131-0.675 0.131h-0.637l-0.125-0.225c-0.069-0.125-0.225-0.313-0.35-0.425l-0.231-0.194 0.444-0.737 0.438-0.737 0.8 0.794 0.8 0.8-0.206 0.231zM13.219 6.831c0.906 0.575 0.9 0.569 0.738 0.744-0.069 0.081-0.15 0.206-0.175 0.281-0.037 0.144-0.050 0.144-1.219 0.144h-1.175l-0.162-0.275c-0.088-0.15-0.238-0.331-0.325-0.394l-0.169-0.125 0.325-0.431 0.331-0.438 0.569 0.025 0.575 0.031 0.688 0.438zM24.65 7.125c0.194 0.188 0.169 0.544-0.050 0.725-0.219 0.194-0.475 0.194-0.688-0.006-0.369-0.344-0.069-0.963 0.431-0.875 0.1 0.019 0.244 0.088 0.306 0.156zM10.119 8.094c0.1 0.050 0.194 0.137 0.219 0.188 0.206 0.55-0.381 1.019-0.8 0.637-0.262-0.231-0.225-0.662 0.075-0.819 0.213-0.119 0.287-0.119 0.506-0.006zM15.588 8.188c0.194 0.188 0.169 0.544-0.050 0.725-0.344 0.3-0.85 0.081-0.85-0.363 0.006-0.488 0.556-0.706 0.9-0.363zM19.863 8.225c0.294 0.331 0.056 0.831-0.4 0.838-0.363 0-0.631-0.431-0.456-0.744 0.194-0.344 0.594-0.388 0.856-0.094zM23.163 8.65c0.050 0.137-0.913 2.487-1 2.425-0.469-0.363-1.6-1.281-1.6-1.306 0-0.012 0.087-0.15 0.188-0.3 0.106-0.15 0.188-0.3 0.188-0.338 0-0.031 0.031-0.081 0.075-0.106 0.056-0.037 1.813-0.425 2.069-0.456 0.025-0.006 0.063 0.031 0.081 0.081zM13.869 9.375c0.113 0.169 0.225 0.325 0.262 0.344 0.031 0.025-0.481 0.488-1.137 1.037-1.15 0.956-1.213 1-1.45 0.981l-0.244-0.019-0.35-0.869-0.344-0.869 0.262-0.213c0.144-0.125 0.319-0.331 0.387-0.463l0.119-0.244h2.294l0.2 0.313zM18.069 9.262c0.044 0.113 0.194 0.306 0.325 0.438l0.25 0.238-0.544 0.906c-0.488 0.813-0.563 0.906-0.712 0.906-0.163 0-0.2-0.056-0.631-1.031l-0.456-1.031 0.156-0.188c0.087-0.1 0.175-0.244 0.2-0.313 0.038-0.113 0.094-0.125 0.681-0.125h0.65l0.081 0.2zM24.781 9.688l0.306 0.619-0.281 0.281c-0.294 0.287-0.462 0.6-0.525 0.994-0.031 0.194-0.075 0.25-0.262 0.325-0.431 0.181-0.475 0.175-0.65-0.081l-0.163-0.238 0.5-1.262c0.619-1.556 0.625-1.556 1.075-0.637zM15.925 11.475l0.313 0.694-0.181 0.269c-0.1 0.15-0.181 0.294-0.181 0.325 0 0.025-0.656 0.050-1.456 0.050h-1.456l-0.113-0.225c-0.056-0.131-0.081-0.25-0.056-0.281 0.025-0.025 0.613-0.512 1.3-1.088l1.25-1.037 0.137 0.3c0.075 0.162 0.275 0.613 0.444 0.994zM20.363 11c0.381 0.313 0.7 0.581 0.7 0.6s-0.081 0.137-0.181 0.262c-0.1 0.125-0.2 0.294-0.219 0.363-0.038 0.113-0.156 0.156-0.869 0.3-0.45 0.088-0.869 0.162-0.919 0.162-0.050-0.006-0.156-0.1-0.231-0.219l-0.137-0.219 0.544-0.906c0.3-0.5 0.556-0.906 0.575-0.906s0.35 0.256 0.738 0.563zM26.063 11.25c0.131 0 0.313 0.287 0.313 0.481 0 0.45-0.569 0.7-0.856 0.375-0.181-0.2-0.212-0.325-0.131-0.55 0.069-0.2 0.375-0.394 0.538-0.338 0.050 0.019 0.113 0.031 0.137 0.031zM22.6 12.6c0.15 0.356-0.087 0.713-0.481 0.713-0.288 0-0.494-0.225-0.494-0.531 0-0.525 0.769-0.675 0.975-0.181zM11.756 12.894c0.131 0.1 0.244 0.319 0.244 0.481 0 0.188-0.331 0.5-0.531 0.5s-0.531-0.306-0.531-0.494c0-0.194 0.125-0.425 0.275-0.494 0.181-0.088 0.425-0.088 0.544 0.006zM17.7 13c0.156 0.162 0.181 0.225 0.15 0.394-0.044 0.231-0.294 0.481-0.481 0.481-0.488 0-0.731-0.556-0.394-0.9 0.231-0.225 0.481-0.213 0.725 0.025zM20.769 13.619c0.169 0.287 0.581 0.619 0.869 0.7 0.15 0.037 0.462 0.056 0.706 0.037 0.481-0.031 0.419-0.069 0.819 0.5l0.231 0.331-0.231 0.225c-0.363 0.35-0.494 0.713-0.456 1.244 0.019 0.313 0.006 0.45-0.050 0.5-0.050 0.031-0.238 0.181-0.431 0.331l-0.344 0.275-0.212-0.212c-0.281-0.288-0.606-0.431-1.050-0.469l-0.369-0.038-0.856-1.306-0.85-1.313 0.15-0.287c0.081-0.162 0.156-0.306 0.163-0.319 0.012-0.019 1.581-0.356 1.738-0.375 0.038-0.006 0.113 0.075 0.175 0.175zM24.65 16.188c0.194 0.188 0.169 0.544-0.050 0.725-0.219 0.194-0.475 0.194-0.688-0.006-0.369-0.344-0.069-0.963 0.431-0.875 0.1 0.019 0.244 0.087 0.306 0.156zM20.925 18.35c0.188 0.212 0.175 0.469-0.025 0.675-0.413 0.413-1.113-0.081-0.831-0.581 0.194-0.344 0.594-0.387 0.856-0.094z">
            </path>
        </symbol>
        <symbol id="icon-telegram" viewBox="0 0 32 32">
            <path
                d="M16 0c-8.838 0-16 7.162-16 16s7.162 16 16 16 16-7.163 16-16-7.163-16-16-16zM23.863 10.969l-2.625 12.369c-0.181 0.881-0.712 1.087-1.45 0.681l-4-2.956-1.919 1.869c-0.225 0.219-0.4 0.4-0.8 0.4-0.519 0-0.431-0.194-0.606-0.688l-1.363-4.475-3.956-1.231c-0.856-0.262-0.862-0.85 0.194-1.269l15.412-5.95c0.7-0.319 1.381 0.169 1.113 1.25z">
            </path>
        </symbol>
    </defs>
</svg>